<svg xmlns="http://www.w3.org/2000/svg" width="153.84999999999997" height="35" viewBox="0 0 153.84999999999997 35"><rect class="svg__rect" x="0" y="0" width="94.6" height="35" fill="#C13B3A"/><rect class="svg__rect" x="92.6" y="0" width="61.249999999999986" height="35" fill="#EA4560"/><path class="svg__text" d="M15.70 22L14.22 22L14.22 13.47L15.70 13.47L15.70 17.02L19.51 17.02L19.51 13.47L20.99 13.47L20.99 22L19.51 22L19.51 18.21L15.70 18.21L15.70 22ZM25.46 18.00L25.46 18.00L25.46 17.52Q25.46 16.28 25.90 15.32Q26.35 14.37 27.15 13.86Q27.96 13.35 29.00 13.35Q30.04 13.35 30.85 13.85Q31.65 14.35 32.09 15.29Q32.53 16.23 32.54 17.48L32.54 17.48L32.54 17.96Q32.54 19.21 32.11 20.16Q31.67 21.10 30.87 21.61Q30.06 22.12 29.01 22.12L29.01 22.12Q27.98 22.12 27.16 21.61Q26.35 21.10 25.91 20.17Q25.47 19.23 25.46 18.00ZM26.94 17.46L26.94 17.96Q26.94 19.36 27.49 20.13Q28.04 20.90 29.01 20.90L29.01 20.90Q30.00 20.90 30.53 20.15Q31.06 19.40 31.06 17.96L31.06 17.96L31.06 17.51Q31.06 16.09 30.52 15.34Q29.98 14.58 29.00 14.58L29.00 14.58Q28.04 14.58 27.50 15.33Q26.96 16.09 26.94 17.46L26.94 17.46ZM36.57 19.42L36.57 19.42L38.05 19.42Q38.05 20.15 38.53 20.55Q39.01 20.95 39.91 20.95L39.91 20.95Q40.68 20.95 41.07 20.63Q41.46 20.32 41.46 19.80L41.46 19.80Q41.46 19.24 41.07 18.94Q40.67 18.63 39.64 18.32Q38.61 18.01 38.00 17.63L38.00 17.63Q36.83 16.90 36.83 15.72L36.83 15.72Q36.83 14.69 37.68 14.02Q38.52 13.35 39.86 13.35L39.86 13.35Q40.75 13.35 41.45 13.68Q42.14 14.01 42.54 14.61Q42.94 15.22 42.94 15.96L42.94 15.96L41.46 15.96Q41.46 15.29 41.04 14.91Q40.63 14.54 39.85 14.54L39.85 14.54Q39.12 14.54 38.72 14.85Q38.32 15.16 38.32 15.71L38.32 15.71Q38.32 16.18 38.75 16.50Q39.18 16.81 40.18 17.10Q41.18 17.40 41.78 17.78Q42.38 18.16 42.66 18.65Q42.95 19.13 42.95 19.79L42.95 19.79Q42.95 20.86 42.13 21.49Q41.31 22.12 39.91 22.12L39.91 22.12Q38.98 22.12 38.21 21.77Q37.43 21.43 37.00 20.83Q36.57 20.22 36.57 19.42ZM48.92 14.66L46.28 14.66L46.28 13.47L53.05 13.47L53.05 14.66L50.39 14.66L50.39 22L48.92 22L48.92 14.66ZM62.51 18.00L62.51 18.00L62.51 17.52Q62.51 16.28 62.95 15.32Q63.39 14.37 64.20 13.86Q65.01 13.35 66.05 13.35Q67.09 13.35 67.90 13.85Q68.70 14.35 69.14 15.29Q69.58 16.23 69.59 17.48L69.59 17.48L69.59 17.96Q69.59 19.21 69.15 20.16Q68.72 21.10 67.92 21.61Q67.11 22.12 66.06 22.12L66.06 22.12Q65.02 22.12 64.21 21.61Q63.40 21.10 62.96 20.17Q62.52 19.23 62.51 18.00ZM63.99 17.46L63.99 17.96Q63.99 19.36 64.54 20.13Q65.09 20.90 66.06 20.90L66.06 20.90Q67.05 20.90 67.58 20.15Q68.11 19.40 68.11 17.96L68.11 17.96L68.11 17.51Q68.11 16.09 67.57 15.34Q67.03 14.58 66.05 14.58L66.05 14.58Q65.09 14.58 64.55 15.33Q64.00 16.09 63.99 17.46L63.99 17.46ZM75.54 22L74.05 22L74.05 13.47L75.54 13.47L79.35 19.54L79.35 13.47L80.82 13.47L80.82 22L79.34 22L75.54 15.95L75.54 22Z" fill="#FFFFFF"/><path class="svg__text" d="M109.12 22L106.79 22L106.79 13.60L108.74 13.60L112.45 18.07L112.45 13.60L114.78 13.60L114.78 22L112.83 22L109.12 17.52L109.12 22ZM122.32 22L119.94 22L119.94 13.60L123.79 13.60Q124.92 13.60 125.76 13.98Q126.60 14.35 127.06 15.06Q127.52 15.76 127.52 16.71L127.52 16.71Q127.52 17.66 127.06 18.35Q126.60 19.05 125.76 19.42Q124.92 19.80 123.79 19.80L123.79 19.80L122.32 19.80L122.32 22ZM122.32 15.47L122.32 17.93L123.64 17.93Q124.37 17.93 124.74 17.61Q125.12 17.29 125.12 16.71L125.12 16.71Q125.12 16.12 124.74 15.80Q124.37 15.47 123.64 15.47L123.64 15.47L122.32 15.47ZM134.47 22L132.27 22L132.27 13.60L134.23 13.60L137.18 18.45L140.06 13.60L142.01 13.60L142.04 22L139.86 22L139.83 17.55L137.67 21.17L136.62 21.17L134.47 17.67L134.47 22Z" fill="#FFFFFF" x="105.6"/></svg>